<svg width="20" height="18" viewBox="0 0 20 18" fill="none" xmlns="http://www.w3.org/2000/svg">
<path d="M16.84 4.35001H13.01C12.29 4.35001 11.62 3.97001 11.25 3.35001L10.6 2.26001C10.23 1.64001 9.56 1.26001 8.84 1.26001H2.81C1.67 1.26001 0.75 2.18001 0.75 3.32001V6.39999L0.75 6.72984C0.75 6.84413 0.75 6.63 0.75 6.75V14.3C0.75 15.63 1.83 16.71 3.16 16.71H16.84C18.17 16.71 19.25 15.63 19.25 14.3V6.75C19.25 5.43 18.17 4.35001 16.84 4.35001Z" stroke="#009933" stroke-width="1.5" stroke-linecap="round" stroke-linejoin="round"/>
<path d="M16.84 4.35001H0.75V14.32C0.75 15.65 1.83 16.73 3.16 16.73H16.84C18.17 16.73 19.25 15.65 19.25 14.32V6.76999C19.25 5.42999 18.17 4.35001 16.84 4.35001Z" stroke="#009933" stroke-width="1.5" stroke-linecap="round" stroke-linejoin="round"/>
</svg>
